<svg width="26" height="25" viewBox="0 0 26 25" fill="none" xmlns="http://www.w3.org/2000/svg">
<path fill-rule="evenodd" clip-rule="evenodd" d="M16.3651 17.2581C14.3532 18.8038 11.8021 19.5501 9.23582 19.3437C6.66953 19.1373 4.28285 17.9938 2.56595 16.1481C0.849053 14.3024 -0.0677265 11.8946 0.00390212 9.41924C0.0755307 6.94385 1.13013 4.5888 2.9511 2.83776C4.77208 1.08673 7.22119 0.0726299 9.79544 0.00375226C12.3697 -0.0651254 14.8737 0.816444 16.7931 2.4674C18.7125 4.11836 19.9016 6.41338 20.1163 8.8811C20.331 11.3488 19.5549 13.8019 17.9473 15.7366L25.6437 23.1359C25.7537 23.2344 25.8419 23.3533 25.9031 23.4853C25.9643 23.6174 25.9972 23.7599 25.9998 23.9045C26.0025 24.049 25.9748 24.1926 25.9185 24.3267C25.8622 24.4607 25.7784 24.5825 25.6721 24.6847C25.5658 24.7869 25.4392 24.8675 25.2998 24.9216C25.1604 24.9758 25.011 25.0024 24.8607 24.9998C24.7104 24.9973 24.5622 24.9656 24.4248 24.9068C24.2875 24.848 24.1639 24.7631 24.0614 24.6574L16.3651 17.2581ZM4.53399 15.016C3.43842 13.9624 2.69224 12.6201 2.38976 11.1589C2.08728 9.69758 2.24207 8.18286 2.83458 6.80615C3.42709 5.42944 4.43071 4.25253 5.71862 3.42415C7.00652 2.59577 8.5209 2.1531 10.0704 2.1521C11.6198 2.1511 13.1348 2.5918 14.4239 3.41851C15.7129 4.24523 16.7182 5.42084 17.3126 6.79678C17.9071 8.17273 18.064 9.68724 17.7635 11.1489C17.4631 12.6106 16.7188 13.9538 15.6247 15.0088L15.6173 15.016L15.6098 15.0218C14.1396 16.4322 12.1474 17.2238 10.0707 17.2227C7.99394 17.2216 6.00258 16.428 4.53399 15.016Z" fill="white"/>
</svg>
